<mxfile host="65bd71144e">
    <diagram id="F20Ic7zi_HS4zxtpFVn9" name="Page-1">
        <mxGraphModel dx="1054" dy="599" grid="1" gridSize="10" guides="1" tooltips="1" connect="1" arrows="1" fold="1" page="1" pageScale="1" pageWidth="850" pageHeight="1100" math="0" shadow="0">
            <root>
                <mxCell id="0"/>
                <mxCell id="1" style="locked=1;" parent="0"/>
                <mxCell id="2" value="NoGain" style="shape=umlFrame;whiteSpace=wrap;html=1;width=160;height=30;boundedLbl=1;verticalAlign=middle;align=left;spacingLeft=5;" parent="1" vertex="1">
                    <mxGeometry x="30" y="120" width="820" height="980" as="geometry"/>
                </mxCell>
                <mxCell id="21" value="Casos" style="locked=1;" parent="0"/>
                <mxCell id="32" value="Login" style="shape=umlFrame;whiteSpace=wrap;html=1;width=120;height=30;boundedLbl=1;verticalAlign=middle;align=left;spacingLeft=5;" parent="21" vertex="1">
                    <mxGeometry x="70" y="260" width="740" height="800" as="geometry"/>
                </mxCell>
                <mxCell id="44" value="Register Employee" style="shape=umlFrame;whiteSpace=wrap;html=1;width=120;height=30;boundedLbl=1;verticalAlign=middle;align=left;spacingLeft=5;" parent="21" vertex="1">
                    <mxGeometry x="90" y="460" width="650" height="450" as="geometry"/>
                </mxCell>
                <mxCell id="17" value="Entidades" style="" parent="0"/>
                <mxCell id="18" value="" style="shape=umlLifeline;participant=umlActor;perimeter=lifelinePerimeter;whiteSpace=wrap;html=1;container=1;collapsible=0;recursiveResize=0;verticalAlign=top;spacingTop=36;outlineConnect=0;" parent="17" vertex="1">
                    <mxGeometry x="120" y="200" width="20" height="820" as="geometry"/>
                </mxCell>
                <mxCell id="23" value="" style="html=1;points=[];perimeter=orthogonalPerimeter;" parent="18" vertex="1">
                    <mxGeometry x="5" y="120" width="10" height="440" as="geometry"/>
                </mxCell>
                <mxCell id="43" value="" style="html=1;points=[];perimeter=orthogonalPerimeter;" parent="18" vertex="1">
                    <mxGeometry x="5" y="740" width="10" height="60" as="geometry"/>
                </mxCell>
                <mxCell id="19" value="Manager" style="text;html=1;strokeColor=none;fillColor=none;align=center;verticalAlign=middle;whiteSpace=wrap;rounded=0;" parent="17" vertex="1">
                    <mxGeometry x="100" y="170" width="60" height="30" as="geometry"/>
                </mxCell>
                <mxCell id="20" value="FrontEnd App" style="shape=umlLifeline;perimeter=lifelinePerimeter;whiteSpace=wrap;html=1;container=1;collapsible=0;recursiveResize=0;outlineConnect=0;" parent="17" vertex="1">
                    <mxGeometry x="290" y="180" width="135" height="840" as="geometry"/>
                </mxCell>
                <mxCell id="24" value="" style="html=1;points=[];perimeter=orthogonalPerimeter;" parent="20" vertex="1">
                    <mxGeometry x="62.5" y="140" width="10" height="220" as="geometry"/>
                </mxCell>
                <mxCell id="34" value="2: Invalid email || password" style="html=1;verticalAlign=bottom;endArrow=open;dashed=1;endSize=8;exitX=1.046;exitY=0.102;exitDx=0;exitDy=0;exitPerimeter=0;" parent="20" source="24" target="24" edge="1">
                    <mxGeometry x="-0.1321" relative="1" as="geometry">
                        <mxPoint x="20" y="170" as="sourcePoint"/>
                        <mxPoint x="-60" y="170" as="targetPoint"/>
                        <Array as="points">
                            <mxPoint x="140" y="160"/>
                            <mxPoint x="140" y="180"/>
                        </Array>
                        <mxPoint as="offset"/>
                    </mxGeometry>
                </mxCell>
                <mxCell id="45" value="" style="html=1;points=[];perimeter=orthogonalPerimeter;" parent="20" vertex="1">
                    <mxGeometry x="63" y="430" width="10" height="120" as="geometry"/>
                </mxCell>
                <mxCell id="49" value="8: Invalid Data" style="html=1;verticalAlign=bottom;endArrow=open;dashed=1;endSize=8;" parent="20" source="45" target="45" edge="1">
                    <mxGeometry x="-0.4478" y="10" relative="1" as="geometry">
                        <mxPoint x="190" y="420" as="sourcePoint"/>
                        <mxPoint x="110" y="420" as="targetPoint"/>
                        <Array as="points">
                            <mxPoint x="130" y="460"/>
                            <mxPoint x="130" y="480"/>
                            <mxPoint x="120" y="480"/>
                        </Array>
                        <mxPoint as="offset"/>
                    </mxGeometry>
                </mxCell>
                <mxCell id="25" value="MongoDB" style="shape=umlLifeline;perimeter=lifelinePerimeter;whiteSpace=wrap;html=1;container=1;collapsible=0;recursiveResize=0;outlineConnect=0;" parent="17" vertex="1">
                    <mxGeometry x="640" y="180" width="100" height="850" as="geometry"/>
                </mxCell>
                <mxCell id="26" value="" style="html=1;points=[];perimeter=orthogonalPerimeter;" parent="25" vertex="1">
                    <mxGeometry x="45" y="260" width="10" height="560" as="geometry"/>
                </mxCell>
                <mxCell id="27" value="BackEnd App" style="shape=umlLifeline;perimeter=lifelinePerimeter;whiteSpace=wrap;html=1;container=1;collapsible=0;recursiveResize=0;outlineConnect=0;" parent="17" vertex="1">
                    <mxGeometry x="480" y="180" width="100" height="850" as="geometry"/>
                </mxCell>
                <mxCell id="28" value="" style="html=1;points=[];perimeter=orthogonalPerimeter;" parent="27" vertex="1">
                    <mxGeometry x="45" y="190" width="10" height="170" as="geometry"/>
                </mxCell>
                <mxCell id="46" value="" style="html=1;points=[];perimeter=orthogonalPerimeter;" parent="27" vertex="1">
                    <mxGeometry x="45" y="520" width="10" height="140" as="geometry"/>
                </mxCell>
                <mxCell id="29" value="1: login(email,password)" style="html=1;verticalAlign=bottom;endArrow=block;exitX=1.055;exitY=0.011;exitDx=0;exitDy=0;exitPerimeter=0;entryX=0.055;entryY=0.02;entryDx=0;entryDy=0;entryPerimeter=0;" parent="17" source="23" target="24" edge="1">
                    <mxGeometry width="80" relative="1" as="geometry">
                        <mxPoint x="280" y="360" as="sourcePoint"/>
                        <mxPoint x="360" y="360" as="targetPoint"/>
                    </mxGeometry>
                </mxCell>
                <mxCell id="35" value="3: send(email,password)" style="html=1;verticalAlign=bottom;endArrow=block;exitX=1.107;exitY=0.334;exitDx=0;exitDy=0;exitPerimeter=0;" parent="17" source="24" target="28" edge="1">
                    <mxGeometry width="80" relative="1" as="geometry">
                        <mxPoint x="400" y="370" as="sourcePoint"/>
                        <mxPoint x="480" y="370" as="targetPoint"/>
                    </mxGeometry>
                </mxCell>
                <mxCell id="36" value="5: send (email,password)" style="html=1;verticalAlign=bottom;endArrow=block;" parent="17" source="28" target="26" edge="1">
                    <mxGeometry width="80" relative="1" as="geometry">
                        <mxPoint x="500" y="350" as="sourcePoint"/>
                        <mxPoint x="680" y="414" as="targetPoint"/>
                    </mxGeometry>
                </mxCell>
                <mxCell id="37" value="4: Invalid email || password" style="html=1;verticalAlign=bottom;endArrow=open;dashed=1;endSize=8;exitX=0.024;exitY=0.382;exitDx=0;exitDy=0;exitPerimeter=0;" parent="17" source="28" target="24" edge="1">
                    <mxGeometry relative="1" as="geometry">
                        <mxPoint x="530" y="390" as="sourcePoint"/>
                        <mxPoint x="450" y="390" as="targetPoint"/>
                    </mxGeometry>
                </mxCell>
                <mxCell id="39" value="6: login accepted" style="html=1;verticalAlign=bottom;endArrow=open;dashed=1;endSize=8;exitX=0.057;exitY=0.132;exitDx=0;exitDy=0;exitPerimeter=0;" parent="17" source="26" target="23" edge="1">
                    <mxGeometry relative="1" as="geometry">
                        <mxPoint x="700" y="470" as="sourcePoint"/>
                        <mxPoint x="620" y="470" as="targetPoint"/>
                    </mxGeometry>
                </mxCell>
                <mxCell id="40" value="7: login rejected" style="html=1;verticalAlign=bottom;endArrow=open;dashed=1;endSize=8;exitX=0.5;exitY=0.946;exitDx=0;exitDy=0;exitPerimeter=0;" parent="17" source="26" target="43" edge="1">
                    <mxGeometry relative="1" as="geometry">
                        <mxPoint x="680" y="498" as="sourcePoint"/>
                        <mxPoint x="539.9285714285714" y="490.19999999999993" as="targetPoint"/>
                    </mxGeometry>
                </mxCell>
                <mxCell id="47" value="7: Register Employee" style="html=1;verticalAlign=bottom;endArrow=block;entryX=0.111;entryY=0.187;entryDx=0;entryDy=0;entryPerimeter=0;" parent="17" source="18" target="45" edge="1">
                    <mxGeometry width="80" relative="1" as="geometry">
                        <mxPoint x="340" y="550" as="sourcePoint"/>
                        <mxPoint x="358" y="627" as="targetPoint"/>
                    </mxGeometry>
                </mxCell>
                <mxCell id="48" value="8: Valid data" style="html=1;verticalAlign=bottom;endArrow=block;exitX=1.254;exitY=0.858;exitDx=0;exitDy=0;exitPerimeter=0;" parent="17" source="45" target="46" edge="1">
                    <mxGeometry width="80" relative="1" as="geometry">
                        <mxPoint x="440" y="600" as="sourcePoint"/>
                        <mxPoint x="520" y="650" as="targetPoint"/>
                    </mxGeometry>
                </mxCell>
                <mxCell id="50" value="9: send employee Data" style="html=1;verticalAlign=bottom;endArrow=block;exitX=1.052;exitY=0.152;exitDx=0;exitDy=0;exitPerimeter=0;entryX=0.081;entryY=0.502;entryDx=0;entryDy=0;entryPerimeter=0;" parent="17" source="46" target="26" edge="1">
                    <mxGeometry width="80" relative="1" as="geometry">
                        <mxPoint x="540" y="722" as="sourcePoint"/>
                        <mxPoint x="680" y="721" as="targetPoint"/>
                    </mxGeometry>
                </mxCell>
            </root>
        </mxGraphModel>
    </diagram>
    <diagram id="zXP6JgCJRrOx2oG15m70" name="Page-2">
        <mxGraphModel dx="1054" dy="599" grid="1" gridSize="10" guides="1" tooltips="1" connect="1" arrows="1" fold="1" page="1" pageScale="1" pageWidth="850" pageHeight="1100" math="0" shadow="0">
            <root>
                <mxCell id="l76zloapKBJc06pl85xy-0"/>
                <mxCell id="l76zloapKBJc06pl85xy-1" parent="l76zloapKBJc06pl85xy-0"/>
                <mxCell id="l76zloapKBJc06pl85xy-2" value="" style="shape=umlLifeline;participant=umlActor;perimeter=lifelinePerimeter;whiteSpace=wrap;html=1;container=1;collapsible=0;recursiveResize=0;verticalAlign=top;spacingTop=36;outlineConnect=0;" vertex="1" parent="l76zloapKBJc06pl85xy-1">
                    <mxGeometry x="150" y="130" width="20" height="390" as="geometry"/>
                </mxCell>
                <mxCell id="l76zloapKBJc06pl85xy-3" value="" style="html=1;points=[];perimeter=orthogonalPerimeter;" vertex="1" parent="l76zloapKBJc06pl85xy-2">
                    <mxGeometry x="5" y="90" width="10" height="80" as="geometry"/>
                </mxCell>
                <mxCell id="l76zloapKBJc06pl85xy-4" value="Manager" style="text;html=1;strokeColor=none;fillColor=none;align=center;verticalAlign=middle;whiteSpace=wrap;rounded=0;" vertex="1" parent="l76zloapKBJc06pl85xy-1">
                    <mxGeometry x="105" y="80" width="110" height="30" as="geometry"/>
                </mxCell>
                <mxCell id="l76zloapKBJc06pl85xy-5" value="" style="shape=umlLifeline;participant=umlBoundary;perimeter=lifelinePerimeter;whiteSpace=wrap;html=1;container=1;collapsible=0;recursiveResize=0;verticalAlign=top;spacingTop=36;outlineConnect=0;" vertex="1" parent="l76zloapKBJc06pl85xy-1">
                    <mxGeometry x="300" y="130" width="50" height="390" as="geometry"/>
                </mxCell>
                <mxCell id="l76zloapKBJc06pl85xy-9" value="" style="html=1;points=[];perimeter=orthogonalPerimeter;" vertex="1" parent="l76zloapKBJc06pl85xy-5">
                    <mxGeometry x="20" y="90" width="10" height="80" as="geometry"/>
                </mxCell>
                <mxCell id="l76zloapKBJc06pl85xy-6" value="AddEmploee" style="text;html=1;strokeColor=none;fillColor=none;align=center;verticalAlign=middle;whiteSpace=wrap;rounded=0;" vertex="1" parent="l76zloapKBJc06pl85xy-1">
                    <mxGeometry x="285" y="80" width="80" height="30" as="geometry"/>
                </mxCell>
                <mxCell id="l76zloapKBJc06pl85xy-7" value="" style="shape=umlLifeline;participant=umlControl;perimeter=lifelinePerimeter;whiteSpace=wrap;html=1;container=1;collapsible=0;recursiveResize=0;verticalAlign=top;spacingTop=36;outlineConnect=0;" vertex="1" parent="l76zloapKBJc06pl85xy-1">
                    <mxGeometry x="500" y="130" width="40" height="390" as="geometry"/>
                </mxCell>
                <mxCell id="l76zloapKBJc06pl85xy-8" value="Data Base" style="text;html=1;strokeColor=none;fillColor=none;align=center;verticalAlign=middle;whiteSpace=wrap;rounded=0;" vertex="1" parent="l76zloapKBJc06pl85xy-1">
                    <mxGeometry x="480" y="80" width="80" height="30" as="geometry"/>
                </mxCell>
                <mxCell id="jt1Lq2TAl6vtoXR1iw16-0" value="1: Insert Employee details" style="html=1;verticalAlign=bottom;endArrow=block;entryX=0.04;entryY=0.049;entryDx=0;entryDy=0;entryPerimeter=0;" edge="1" parent="l76zloapKBJc06pl85xy-1" source="l76zloapKBJc06pl85xy-3" target="l76zloapKBJc06pl85xy-9">
                    <mxGeometry width="80" relative="1" as="geometry">
                        <mxPoint x="500" y="310" as="sourcePoint"/>
                        <mxPoint x="580" y="310" as="targetPoint"/>
                    </mxGeometry>
                </mxCell>
                <mxCell id="jt1Lq2TAl6vtoXR1iw16-1" value="alt" style="shape=umlFrame;whiteSpace=wrap;html=1;width=40;height=15;" vertex="1" parent="l76zloapKBJc06pl85xy-1">
                    <mxGeometry x="80" y="250" width="570" height="140" as="geometry"/>
                </mxCell>
            </root>
        </mxGraphModel>
    </diagram>
</mxfile>